<?xml version="1.0" encoding="UTF-8"?>
<svg width="195px" height="89px" viewBox="0 0 195 89" version="1.1" xmlns="http://www.w3.org/2000/svg" xmlns:xlink="http://www.w3.org/1999/xlink">
    <!-- Generator: Sketch 55 (78076) - https://sketchapp.com -->
    <title>Group 33</title>
    <desc>Created with Sketch.</desc>
    <defs>
        <polygon id="path-1" points="0 0.0686 41.8857 0.0686 41.8857 69.0836 0 69.0836"></polygon>
    </defs>
    <g id="Page-1" stroke="none" stroke-width="1" fill="none" fill-rule="evenodd">
        <g id="Group-33" transform="translate(0.000000, -1.000000)">
            <g id="Group-32">
                <path d="M194.7646,62.4042 C194.7646,77.6012 182.5596,89.9312 167.3686,89.9312 L167.2436,89.9312 C152.0436,89.9312 139.8386,77.6012 139.8386,62.4042 C139.8386,60.1622 141.7056,58.2972 143.9466,58.2972 C146.1886,58.2972 148.0616,60.1622 148.0616,62.4042 C148.0616,73.1192 156.6536,81.7092 167.3686,81.7092 C177.9526,81.7092 186.5496,73.1192 186.5496,62.4042 C186.5496,52.1892 177.0786,43.1012 166.1216,43.1012 C164.6236,43.1012 163.1276,42.2282 162.5086,40.8552 C161.7566,39.4882 161.8816,37.8692 162.7606,36.6232 L182.8096,9.2202 L143.9466,9.2202 C141.7056,9.2202 139.8386,7.3512 139.8386,5.1072 C139.8386,2.8672 141.7056,1.0002 143.9466,1.0002 L190.7826,1.0002 C192.2806,1.0002 193.7686,1.8712 194.3956,3.2422 C195.1396,4.6092 195.0146,6.2282 194.1456,7.4742 L173.4656,35.8732 C185.5536,38.9902 194.7646,49.9492 194.7646,62.4042" id="Fill-1" fill="#D9C92E"></path>
                <g id="Group-5" transform="translate(0.000000, 0.931600)">
                    <mask id="mask-2" fill="white">
                        <use xlink:href="#path-1"></use>
                    </mask>
                    <g id="Clip-4"></g>
                    <path d="M41.8857,37.8886 L41.8857,64.0776 C41.8857,65.7796 40.4637,67.1976 38.7627,67.1976 C36.9657,67.1976 35.6437,65.7796 35.6437,64.0776 L35.6437,63.0346 C31.8647,66.7226 26.6627,69.0836 20.8947,69.0836 C9.4537,69.0836 -0.0003,59.7266 -0.0003,48.1916 L-0.0003,21.0586 C-0.0003,9.5236 9.4537,0.0686 20.8947,0.0686 C32.4287,0.0686 41.8857,9.5236 41.8857,21.0586 C41.8857,22.7596 40.4637,24.1776 38.7627,24.1776 C36.9657,24.1776 35.6437,22.7596 35.6437,21.0586 C35.6437,12.9256 29.0247,6.3086 20.8947,6.3086 C12.8577,6.3086 6.2397,12.9256 6.2397,21.0586 L6.2397,48.1916 C6.2397,56.2266 12.8577,62.8456 20.8947,62.8456 C29.0247,62.8456 35.6437,56.2266 35.6437,48.1916 L35.6437,41.0076 L21.8407,41.0076 C20.1397,41.0076 18.7217,39.5896 18.7217,37.8886 C18.7217,36.1856 20.1397,34.7656 21.8407,34.7656 L38.7627,34.7656 C40.4637,34.7656 41.8857,36.1856 41.8857,37.8886" id="Fill-3" fill="#4F586E" mask="url(#mask-2)"></path>
                </g>
                <path d="M57.4873,38.3456 L57.4873,61.8886 L79.6163,61.8886 C81.3133,61.8886 82.7333,63.3066 82.7333,65.0096 C82.7333,66.7106 81.3133,68.1286 79.6163,68.1286 L54.3663,68.1286 C52.5713,68.1286 51.2473,66.7106 51.2473,65.0096 L51.2473,5.5366 C51.2473,3.8356 52.5713,2.4196 54.3663,2.4196 L79.6163,2.4196 C81.3133,2.4196 82.7333,3.8356 82.7333,5.5366 C82.7333,7.2406 81.3133,8.6586 79.6163,8.6586 L57.4873,8.6586 L57.4873,32.1056 L79.6163,32.1056 C81.3133,32.1056 82.7333,33.5256 82.7333,35.2266 C82.7333,37.0216 81.3133,38.3456 79.6163,38.3456 L57.4873,38.3456 Z" id="Fill-6" fill="#4F586E"></path>
                <path d="M122.5401,66.5331 L98.5241,18.5021 L98.5241,65.1151 C98.5241,66.9081 97.1061,68.2341 95.4051,68.2341 C93.7021,68.2341 92.2841,66.9081 92.2841,65.1151 L92.2841,5.2651 C92.2841,3.8471 93.2291,2.5251 94.6471,2.2401 C96.0671,1.8611 97.5791,2.5251 98.1451,3.8471 L122.2551,51.9721 L122.2551,5.2651 C122.2551,3.5621 123.5791,2.1441 125.3761,2.1441 C127.0751,2.1441 128.4931,3.5621 128.4931,5.2651 L128.4931,65.1151 C128.4931,66.6271 127.4541,67.8551 126.0361,68.2341 L125.3761,68.2341 C124.1491,68.2341 123.1081,67.6661 122.5401,66.5331" id="Fill-8" fill="#4F586E"></path>
                <path d="M5.0996,86.5673 C7.6446,86.5673 9.4966,84.6983 9.4966,82.1353 C9.4966,79.5903 7.6446,77.7383 5.0996,77.7383 L2.8146,77.7383 L2.8146,86.5673 L5.0996,86.5673 Z M1.0486,76.4223 C1.0486,76.2493 1.1866,76.0933 1.3606,76.0933 L5.3416,76.0933 C8.6836,76.0933 11.4176,78.8113 11.4176,82.1353 C11.4176,85.4943 8.6836,88.2123 5.3416,88.2123 L1.3606,88.2123 C1.1866,88.2123 1.0486,88.0563 1.0486,87.8823 L1.0486,76.4223 Z" id="Fill-10" fill="#4F586E"></path>
                <path d="M20.0391,84.0917 L17.9101,79.3487 L17.8221,79.3487 L15.7111,84.0917 L20.0391,84.0917 Z M12.1961,87.7617 L17.5111,76.1117 C17.5621,76.0067 17.7201,75.9197 17.8061,75.9197 L17.9791,75.9197 C18.0651,75.9197 18.2221,76.0067 18.2731,76.1117 L23.5531,87.7617 C23.6571,87.9877 23.5181,88.2117 23.2591,88.2117 L22.1691,88.2117 C21.9601,88.2117 21.8401,88.1087 21.7701,87.9517 L20.6961,85.5797 L15.0361,85.5797 C14.6891,86.3767 14.3261,87.1557 13.9791,87.9517 C13.9281,88.0727 13.7891,88.2117 13.5821,88.2117 L12.4901,88.2117 C12.2311,88.2117 12.0931,87.9877 12.1961,87.7617 L12.1961,87.7617 Z" id="Fill-12" fill="#4F586E"></path>
                <path d="M26.3047,77.7206 L23.4837,77.7206 C23.2927,77.7206 23.1537,77.5656 23.1537,77.3926 L23.1537,76.4226 C23.1537,76.2486 23.2927,76.0936 23.4837,76.0936 L30.9277,76.0936 C31.1177,76.0936 31.2567,76.2486 31.2567,76.4226 L31.2567,77.3926 C31.2567,77.5656 31.1177,77.7206 30.9277,77.7206 L28.1057,77.7206 L28.1057,87.8826 C28.1057,88.0566 27.9497,88.2116 27.7767,88.2116 L26.6337,88.2116 C26.4607,88.2116 26.3047,88.0566 26.3047,87.8826 L26.3047,77.7206 Z" id="Fill-14" fill="#4F586E"></path>
                <path d="M38.6826,84.0917 L36.5526,79.3487 L36.4666,79.3487 L34.3546,84.0917 L38.6826,84.0917 Z M30.8396,87.7617 L36.1556,76.1117 C36.2066,76.0067 36.3616,75.9197 36.4496,75.9197 L36.6216,75.9197 C36.7086,75.9197 36.8646,76.0067 36.9156,76.1117 L42.1976,87.7617 C42.2996,87.9877 42.1616,88.2117 41.9026,88.2117 L40.8116,88.2117 C40.6046,88.2117 40.4826,88.1087 40.4126,87.9517 L39.3396,85.5797 L33.6786,85.5797 C33.3326,86.3767 32.9696,87.1557 32.6226,87.9517 C32.5716,88.0727 32.4326,88.2117 32.2246,88.2117 L31.1336,88.2117 C30.8736,88.2117 30.7356,87.9877 30.8396,87.7617 L30.8396,87.7617 Z" id="Fill-16" fill="#4F586E"></path>
                <path d="M53.1016,75.9198 C54.8506,75.9198 56.1146,76.5088 57.2906,77.5308 C57.4476,77.6688 57.4476,77.8768 57.3086,78.0158 L56.5466,78.7948 C56.4256,78.9488 56.2706,78.9488 56.1146,78.7948 C55.2996,78.0838 54.1926,77.6338 53.1186,77.6338 C50.6436,77.6338 48.7736,79.7118 48.7736,82.1358 C48.7736,84.5598 50.6606,86.6188 53.1356,86.6188 C54.3996,86.6188 55.2836,86.1168 56.1146,85.4768 C56.2706,85.3558 56.4256,85.3728 56.5296,85.4598 L57.3266,86.2388 C57.4636,86.3588 57.4296,86.5848 57.3086,86.7058 C56.1316,87.8488 54.6426,88.3848 53.1016,88.3848 C49.6386,88.3848 46.8516,85.6328 46.8516,82.1698 C46.8516,78.7078 49.6386,75.9198 53.1016,75.9198" id="Fill-18" fill="#4F586E"></path>
                <path d="M65.0625,86.6542 C67.5395,86.6542 69.5645,84.6452 69.5645,82.1702 C69.5645,79.7122 67.5395,77.6512 65.0625,77.6512 C62.6045,77.6512 60.5795,79.7122 60.5795,82.1702 C60.5795,84.6452 62.6045,86.6542 65.0625,86.6542 M65.0625,75.9202 C68.5255,75.9202 71.2955,78.7082 71.2955,82.1702 C71.2955,85.6332 68.5255,88.3842 65.0625,88.3842 C61.6005,88.3842 58.8475,85.6332 58.8475,82.1702 C58.8475,78.7082 61.6005,75.9202 65.0625,75.9202" id="Fill-20" fill="#4F586E"></path>
                <path d="M75.086,76.1796 C75.12,76.0416 75.259,75.9196 75.398,75.9196 L75.675,75.9196 C75.777,75.9196 75.934,76.0066 75.968,76.1116 L79.586,84.9566 L79.656,84.9566 L83.257,76.1116 C83.292,76.0066 83.431,75.9196 83.551,75.9196 L83.828,75.9196 C83.967,75.9196 84.106,76.0416 84.14,76.1796 L86.27,87.8136 C86.321,88.0566 86.2,88.2116 85.958,88.2116 L84.832,88.2116 C84.677,88.2116 84.538,88.0906 84.503,87.9696 L83.222,80.2316 L83.17,80.2316 L80.054,88.1956 C80.02,88.2986 79.915,88.3846 79.76,88.3846 L79.448,88.3846 C79.31,88.3846 79.189,88.2986 79.154,88.1956 L76.021,80.2316 L75.951,80.2316 L74.705,87.9696 C74.687,88.0906 74.531,88.2116 74.394,88.2116 L73.268,88.2116 C73.025,88.2116 72.904,88.0566 72.939,87.8136 L75.086,76.1796 Z" id="Fill-22" fill="#4F586E"></path>
                <path d="M90.1279,76.1796 C90.1629,76.0416 90.3019,75.9196 90.4399,75.9196 L90.7169,75.9196 C90.8199,75.9196 90.9769,76.0066 91.0119,76.1116 L94.6289,84.9566 L94.6989,84.9566 L98.2999,76.1116 C98.3339,76.0066 98.4729,75.9196 98.5939,75.9196 L98.8709,75.9196 C99.0099,75.9196 99.1489,76.0416 99.1829,76.1796 L101.3129,87.8136 C101.3639,88.0566 101.2419,88.2116 101.0009,88.2116 L99.8749,88.2116 C99.7199,88.2116 99.5809,88.0906 99.5459,87.9696 L98.2649,80.2316 L98.2129,80.2316 L95.0969,88.1956 C95.0629,88.2986 94.9579,88.3846 94.8019,88.3846 L94.4899,88.3846 C94.3529,88.3846 94.2319,88.2986 94.1969,88.1956 L91.0639,80.2316 L90.9929,80.2316 L89.7479,87.9696 C89.7299,88.0906 89.5739,88.2116 89.4369,88.2116 L88.3109,88.2116 C88.0679,88.2116 87.9459,88.0566 87.9819,87.8136 L90.1279,76.1796 Z" id="Fill-24" fill="#4F586E"></path>
                <path d="M109.1875,86.6542 C111.6635,86.6542 113.6885,84.6452 113.6885,82.1702 C113.6885,79.7122 111.6635,77.6512 109.1875,77.6512 C106.7295,77.6512 104.7035,79.7122 104.7035,82.1702 C104.7035,84.6452 106.7295,86.6542 109.1875,86.6542 M109.1875,75.9202 C112.6495,75.9202 115.4195,78.7082 115.4195,82.1702 C115.4195,85.6332 112.6495,88.3842 109.1875,88.3842 C105.7245,88.3842 102.9725,85.6332 102.9725,82.1702 C102.9725,78.7082 105.7245,75.9202 109.1875,75.9202" id="Fill-26" fill="#4F586E"></path>
                <path d="M117.8945,76.2313 C117.8945,76.0583 118.0495,75.9193 118.2235,75.9193 L118.6555,75.9193 L126.1695,84.6113 L126.1865,84.6113 L126.1865,76.4223 C126.1865,76.2493 126.3255,76.0933 126.5155,76.0933 L127.6235,76.0933 C127.7965,76.0933 127.9525,76.2493 127.9525,76.4223 L127.9525,88.0733 C127.9525,88.2473 127.7965,88.3843 127.6235,88.3843 L127.1725,88.3843 L119.6605,79.4523 L119.6425,79.4523 L119.6425,87.8823 C119.6425,88.0563 119.5035,88.2113 119.3145,88.2113 L118.2235,88.2113 C118.0495,88.2113 117.8945,88.0563 117.8945,87.8823 L117.8945,76.2313 Z" id="Fill-28" fill="#4F586E"></path>
                <path d="M130.5312,86.4638 C130.6862,86.2388 130.8252,85.9788 130.9812,85.7538 C131.1362,85.5278 131.3792,85.4598 131.5692,85.6148 C131.6742,85.7018 133.0062,86.8098 134.3402,86.8098 C135.5332,86.8098 136.2962,86.0828 136.2962,85.1998 C136.2962,84.1608 135.3952,83.5028 133.6812,82.7938 C131.9152,82.0488 130.5312,81.1308 130.5312,79.1228 C130.5312,77.7728 131.5692,75.9198 134.3222,75.9198 C136.0532,75.9198 137.3512,76.8198 137.5252,76.9428 C137.6632,77.0278 137.8022,77.2708 137.6292,77.5308 C137.4902,77.7378 137.3352,77.9808 137.1962,78.1888 C137.0572,78.4128 136.8332,78.5178 136.5902,78.3608 C136.4682,78.2918 135.2572,77.4958 134.2532,77.4958 C132.7992,77.4958 132.2972,78.4128 132.2972,79.0538 C132.2972,80.0398 133.0582,80.6468 134.4952,81.2348 C136.5032,82.0488 138.2172,83.0008 138.2172,85.1128 C138.2172,86.9138 136.6072,88.3848 134.3562,88.3848 C132.2452,88.3848 130.9112,87.2768 130.6352,87.0178 C130.4782,86.8798 130.3572,86.7578 130.5312,86.4638" id="Fill-30" fill="#4F586E"></path>
            </g>
        </g>
    </g>
</svg>